<?xml version="1.0" standalone="no"?>
<!DOCTYPE svg PUBLIC "-//W3C//DTD SVG 20010904//EN"
 "http://www.w3.org/TR/2001/REC-SVG-20010904/DTD/svg10.dtd">
<svg version="1.0" xmlns="http://www.w3.org/2000/svg"
     width="80" height="80" viewBox="0 0 84.000000 84.000000"
 preserveAspectRatio="xMidYMid meet">

<g transform="translate(0.000000,84.000000) scale(0.100000,-0.100000)"
fill="#fff" stroke="none">
<path d="M390 801 c0 -15 46 -77 88 -117 34 -32 42 -46 43 -79 1 -22 -2 -49
-6 -60 l-7 -20 16 20 c8 11 20 25 26 30 6 6 23 20 36 33 21 18 37 22 97 23
106 1 128 14 36 22 -41 4 -85 4 -98 0 -19 -5 -23 -3 -18 10 9 23 -25 32 -40
11 -12 -16 -13 -16 -19 0 -7 19 -154 141 -154 127z"/>
<path d="M327 486 c34 -26 83 -43 140 -51 83 -11 97 -55 22 -75 -21 -6 -41
-15 -45 -21 -12 -20 19 -28 47 -14 31 17 123 10 144 -11 7 -7 16 -35 20 -61 8
-60 34 -118 69 -160 54 -64 55 -49 17 132 -18 84 -26 104 -52 128 -32 29 -31
47 2 47 12 0 19 5 16 13 -2 7 -20 11 -45 10 -35 -1 -47 4 -76 33 -32 32 -38
34 -103 34 -37 0 -93 3 -123 6 -53 6 -54 6 -33 -10z"/>
<path d="M94 271 c11 -11 40 -17 94 -19 42 -2 81 -7 85 -12 5 -4 -2 -17 -14
-29 -30 -28 -19 -37 21 -16 44 23 68 13 116 -48 37 -48 85 -79 100 -65 8 8
-66 108 -103 139 -16 14 -28 30 -25 37 5 16 -27 27 -40 14 -8 -8 -17 -8 -30
-1 -11 6 -64 12 -119 13 -92 3 -99 2 -85 -13z"/>
</g>
</svg>
